0
SECTION
2
HEADER
9
$INSUNITS
70
4
0
ENDSEC
0
SECTION
2
TABLES
0
TABLE
2
LTYPE
0
LTYPE
72
65
70
64
2
CONTINUOUS
3
______
73
0
40
0
0
ENDTAB
0
TABLE
2
LAYER
0
ENDTAB
0
ENDSEC
0
SECTION
2
ENTITIES
0
LINE
8
0
10
201.5416658
20
-73.4212956
11
218.2278812
21
-86.3994632
0
LINE
8
0
10
219
20
-87.9781676
11
219
21
-171
0
LINE
8
0
10
217
20
-173
11
109.5285059
21
-173
0
LINE
8
0
10
108.5404871
20
-172.7389131
11
87.9987238
21
-161.0674567
0
LINE
8
0
10
86.9868731
20
-159.3513992
11
86.0231183
21
-75.0228556
0
LINE
8
0
10
88.0229878
20
-73
11
200.3137846
21
-73
0
ARC
8
0
10
217
20
-87.9781676
40
2
50
0
51
52.1250163
0
ARC
8
0
10
217
20
-171
40
2
50
270
51
0
0
ARC
8
0
10
109.5285059
20
-171
40
2
50
240.3955508
51
270
0
ARC
8
0
10
88.9867425
20
-159.3285436
40
2
50
180.654779
51
240.3955508
0
ARC
8
0
10
88.0229878
20
-75
40
2
50
90
51
180.654779
0
ARC
8
0
10
200.3137846
20
-75
40
2
50
52.1250163
51
90
0
LINE
8
0
10
91.25
20
-158.25
11
108.75
21
-158.25
0
LINE
8
0
10
108.75
20
-158.25
11
108.75
21
-141.75
0
LINE
8
0
10
108.75
20
-141.75
11
91.25
21
-141.75
0
LINE
8
0
10
91.25
20
-141.75
11
91.25
21
-158.25
0
LINE
8
0
10
91.25
20
-139.25
11
108.75
21
-139.25
0
LINE
8
0
10
108.75
20
-139.25
11
108.75
21
-122.75
0
LINE
8
0
10
108.75
20
-122.75
11
91.25
21
-122.75
0
LINE
8
0
10
91.25
20
-122.75
11
91.25
21
-139.25
0
LINE
8
0
10
91.25
20
-120.25
11
108.75
21
-120.25
0
LINE
8
0
10
108.75
20
-120.25
11
108.75
21
-103.75
0
LINE
8
0
10
108.75
20
-103.75
11
91.25
21
-103.75
0
LINE
8
0
10
91.25
20
-103.75
11
91.25
21
-120.25
0
LINE
8
0
10
109.25
20
-158.25
11
126.75
21
-158.25
0
LINE
8
0
10
126.75
20
-158.25
11
126.75
21
-141.75
0
LINE
8
0
10
126.75
20
-141.75
11
109.25
21
-141.75
0
LINE
8
0
10
109.25
20
-141.75
11
109.25
21
-158.25
0
LINE
8
0
10
109.25
20
-139.25
11
126.75
21
-139.25
0
LINE
8
0
10
126.75
20
-139.25
11
126.75
21
-122.75
0
LINE
8
0
10
126.75
20
-122.75
11
109.25
21
-122.75
0
LINE
8
0
10
109.25
20
-122.75
11
109.25
21
-139.25
0
LINE
8
0
10
109.25
20
-120.25
11
126.75
21
-120.25
0
LINE
8
0
10
126.75
20
-120.25
11
126.75
21
-103.75
0
LINE
8
0
10
126.75
20
-103.75
11
109.25
21
-103.75
0
LINE
8
0
10
109.25
20
-103.75
11
109.25
21
-120.25
0
LINE
8
0
10
109.25
20
-101.25
11
126.75
21
-101.25
0
LINE
8
0
10
126.75
20
-101.25
11
126.75
21
-84.75
0
LINE
8
0
10
126.75
20
-84.75
11
109.25
21
-84.75
0
LINE
8
0
10
109.25
20
-84.75
11
109.25
21
-101.25
0
LINE
8
0
10
127.25
20
-150.25
11
144.75
21
-150.25
0
LINE
8
0
10
144.75
20
-150.25
11
144.75
21
-133.75
0
LINE
8
0
10
144.75
20
-133.75
11
127.25
21
-133.75
0
LINE
8
0
10
127.25
20
-133.75
11
127.25
21
-150.25
0
LINE
8
0
10
127.25
20
-131.25
11
144.75
21
-131.25
0
LINE
8
0
10
144.75
20
-131.25
11
144.75
21
-114.75
0
LINE
8
0
10
144.75
20
-114.75
11
127.25
21
-114.75
0
LINE
8
0
10
127.25
20
-114.75
11
127.25
21
-131.25
0
LINE
8
0
10
127.25
20
-112.25
11
144.75
21
-112.25
0
LINE
8
0
10
144.75
20
-112.25
11
144.75
21
-95.75
0
LINE
8
0
10
144.75
20
-95.75
11
127.25
21
-95.75
0
LINE
8
0
10
127.25
20
-95.75
11
127.25
21
-112.25
0
LINE
8
0
10
127.25
20
-93.25
11
144.75
21
-93.25
0
LINE
8
0
10
144.75
20
-93.25
11
144.75
21
-76.75
0
LINE
8
0
10
144.75
20
-76.75
11
127.25
21
-76.75
0
LINE
8
0
10
127.25
20
-76.75
11
127.25
21
-93.25
0
LINE
8
0
10
145.25
20
-148.25
11
162.75
21
-148.25
0
LINE
8
0
10
162.75
20
-148.25
11
162.75
21
-131.75
0
LINE
8
0
10
162.75
20
-131.75
11
145.25
21
-131.75
0
LINE
8
0
10
145.25
20
-131.75
11
145.25
21
-148.25
0
LINE
8
0
10
145.25
20
-129.25
11
162.75
21
-129.25
0
LINE
8
0
10
162.75
20
-129.25
11
162.75
21
-112.75
0
LINE
8
0
10
162.75
20
-112.75
11
145.25
21
-112.75
0
LINE
8
0
10
145.25
20
-112.75
11
145.25
21
-129.25
0
LINE
8
0
10
145.25
20
-110.25
11
162.75
21
-110.25
0
LINE
8
0
10
162.75
20
-110.25
11
162.75
21
-93.75
0
LINE
8
0
10
162.75
20
-93.75
11
145.25
21
-93.75
0
LINE
8
0
10
145.25
20
-93.75
11
145.25
21
-110.25
0
LINE
8
0
10
145.25
20
-91.25
11
162.75
21
-91.25
0
LINE
8
0
10
162.75
20
-91.25
11
162.75
21
-74.75
0
LINE
8
0
10
162.75
20
-74.75
11
145.25
21
-74.75
0
LINE
8
0
10
145.25
20
-74.75
11
145.25
21
-91.25
0
LINE
8
0
10
163.25
20
-150.25
11
180.75
21
-150.25
0
LINE
8
0
10
180.75
20
-150.25
11
180.75
21
-133.75
0
LINE
8
0
10
180.75
20
-133.75
11
163.25
21
-133.75
0
LINE
8
0
10
163.25
20
-133.75
11
163.25
21
-150.25
0
LINE
8
0
10
163.25
20
-131.25
11
180.75
21
-131.25
0
LINE
8
0
10
180.75
20
-131.25
11
180.75
21
-114.75
0
LINE
8
0
10
180.75
20
-114.75
11
163.25
21
-114.75
0
LINE
8
0
10
163.25
20
-114.75
11
163.25
21
-131.25
0
LINE
8
0
10
163.25
20
-112.25
11
180.75
21
-112.25
0
LINE
8
0
10
180.75
20
-112.25
11
180.75
21
-95.75
0
LINE
8
0
10
180.75
20
-95.75
11
163.25
21
-95.75
0
LINE
8
0
10
163.25
20
-95.75
11
163.25
21
-112.25
0
LINE
8
0
10
163.25
20
-93.25
11
180.75
21
-93.25
0
LINE
8
0
10
180.75
20
-93.25
11
180.75
21
-76.75
0
LINE
8
0
10
180.75
20
-76.75
11
163.25
21
-76.75
0
LINE
8
0
10
163.25
20
-76.75
11
163.25
21
-93.25
0
LINE
8
0
10
181.25
20
-152.25
11
198.75
21
-152.25
0
LINE
8
0
10
198.75
20
-152.25
11
198.75
21
-135.75
0
LINE
8
0
10
198.75
20
-135.75
11
181.25
21
-135.75
0
LINE
8
0
10
181.25
20
-135.75
11
181.25
21
-152.25
0
LINE
8
0
10
181.25
20
-133.25
11
198.75
21
-133.25
0
LINE
8
0
10
198.75
20
-133.25
11
198.75
21
-116.75
0
LINE
8
0
10
198.75
20
-116.75
11
181.25
21
-116.75
0
LINE
8
0
10
181.25
20
-116.75
11
181.25
21
-133.25
0
LINE
8
0
10
181.25
20
-114.25
11
198.75
21
-114.25
0
LINE
8
0
10
198.75
20
-114.25
11
198.75
21
-97.75
0
LINE
8
0
10
198.75
20
-97.75
11
181.25
21
-97.75
0
LINE
8
0
10
181.25
20
-97.75
11
181.25
21
-114.25
0
LINE
8
0
10
181.25
20
-95.25
11
198.75
21
-95.25
0
LINE
8
0
10
198.75
20
-95.25
11
198.75
21
-78.75
0
LINE
8
0
10
198.75
20
-78.75
11
181.25
21
-78.75
0
LINE
8
0
10
181.25
20
-78.75
11
181.25
21
-95.25
0
LINE
8
0
10
163.25
20
-170.25
11
180.75
21
-170.25
0
LINE
8
0
10
180.75
20
-170.25
11
180.75
21
-153.75
0
LINE
8
0
10
180.75
20
-153.75
11
163.25
21
-153.75
0
LINE
8
0
10
163.25
20
-153.75
11
163.25
21
-170.25
0
LINE
8
0
10
181.25
20
-170.25
11
198.75
21
-170.25
0
LINE
8
0
10
198.75
20
-170.25
11
198.75
21
-153.75
0
LINE
8
0
10
198.75
20
-153.75
11
181.25
21
-153.75
0
LINE
8
0
10
181.25
20
-153.75
11
181.25
21
-170.25
0
LINE
8
0
10
199.25
20
-170.25
11
216.75
21
-170.25
0
LINE
8
0
10
216.75
20
-170.25
11
216.75
21
-153.75
0
LINE
8
0
10
216.75
20
-153.75
11
199.25
21
-153.75
0
LINE
8
0
10
199.25
20
-153.75
11
199.25
21
-170.25
0
ENDSEC
0
EOF