0
SECTION
2
HEADER
9
$INSUNITS
70
4
0
ENDSEC
0
SECTION
2
TABLES
0
TABLE
2
LTYPE
0
LTYPE
72
65
70
64
2
CONTINUOUS
3
______
73
0
40
0
0
ENDTAB
0
TABLE
2
LAYER
0
ENDTAB
0
ENDSEC
0
SECTION
2
ENTITIES
0
LINE
8
0
10
91.25
20
-158.25
11
108.75
21
-158.25
0
LINE
8
0
10
108.75
20
-158.25
11
108.75
21
-141.75
0
LINE
8
0
10
108.75
20
-141.75
11
91.25
21
-141.75
0
LINE
8
0
10
91.25
20
-141.75
11
91.25
21
-158.25
0
LINE
8
0
10
91.25
20
-139.25
11
108.75
21
-139.25
0
LINE
8
0
10
108.75
20
-139.25
11
108.75
21
-122.75
0
LINE
8
0
10
108.75
20
-122.75
11
91.25
21
-122.75
0
LINE
8
0
10
91.25
20
-122.75
11
91.25
21
-139.25
0
LINE
8
0
10
91.25
20
-120.25
11
108.75
21
-120.25
0
LINE
8
0
10
108.75
20
-120.25
11
108.75
21
-103.75
0
LINE
8
0
10
108.75
20
-103.75
11
91.25
21
-103.75
0
LINE
8
0
10
91.25
20
-103.75
11
91.25
21
-120.25
0
LINE
8
0
10
109.25
20
-158.25
11
126.75
21
-158.25
0
LINE
8
0
10
126.75
20
-158.25
11
126.75
21
-141.75
0
LINE
8
0
10
126.75
20
-141.75
11
109.25
21
-141.75
0
LINE
8
0
10
109.25
20
-141.75
11
109.25
21
-158.25
0
LINE
8
0
10
109.25
20
-139.25
11
126.75
21
-139.25
0
LINE
8
0
10
126.75
20
-139.25
11
126.75
21
-122.75
0
LINE
8
0
10
126.75
20
-122.75
11
109.25
21
-122.75
0
LINE
8
0
10
109.25
20
-122.75
11
109.25
21
-139.25
0
LINE
8
0
10
109.25
20
-120.25
11
126.75
21
-120.25
0
LINE
8
0
10
126.75
20
-120.25
11
126.75
21
-103.75
0
LINE
8
0
10
126.75
20
-103.75
11
109.25
21
-103.75
0
LINE
8
0
10
109.25
20
-103.75
11
109.25
21
-120.25
0
LINE
8
0
10
109.25
20
-101.25
11
126.75
21
-101.25
0
LINE
8
0
10
126.75
20
-101.25
11
126.75
21
-84.75
0
LINE
8
0
10
126.75
20
-84.75
11
109.25
21
-84.75
0
LINE
8
0
10
109.25
20
-84.75
11
109.25
21
-101.25
0
LINE
8
0
10
127.25
20
-150.25
11
144.75
21
-150.25
0
LINE
8
0
10
144.75
20
-150.25
11
144.75
21
-133.75
0
LINE
8
0
10
144.75
20
-133.75
11
127.25
21
-133.75
0
LINE
8
0
10
127.25
20
-133.75
11
127.25
21
-150.25
0
LINE
8
0
10
127.25
20
-131.25
11
144.75
21
-131.25
0
LINE
8
0
10
144.75
20
-131.25
11
144.75
21
-114.75
0
LINE
8
0
10
144.75
20
-114.75
11
127.25
21
-114.75
0
LINE
8
0
10
127.25
20
-114.75
11
127.25
21
-131.25
0
LINE
8
0
10
127.25
20
-112.25
11
144.75
21
-112.25
0
LINE
8
0
10
144.75
20
-112.25
11
144.75
21
-95.75
0
LINE
8
0
10
144.75
20
-95.75
11
127.25
21
-95.75
0
LINE
8
0
10
127.25
20
-95.75
11
127.25
21
-112.25
0
LINE
8
0
10
127.25
20
-93.25
11
144.75
21
-93.25
0
LINE
8
0
10
144.75
20
-93.25
11
144.75
21
-76.75
0
LINE
8
0
10
144.75
20
-76.75
11
127.25
21
-76.75
0
LINE
8
0
10
127.25
20
-76.75
11
127.25
21
-93.25
0
LINE
8
0
10
145.25
20
-148.25
11
162.75
21
-148.25
0
LINE
8
0
10
162.75
20
-148.25
11
162.75
21
-131.75
0
LINE
8
0
10
162.75
20
-131.75
11
145.25
21
-131.75
0
LINE
8
0
10
145.25
20
-131.75
11
145.25
21
-148.25
0
LINE
8
0
10
145.25
20
-129.25
11
162.75
21
-129.25
0
LINE
8
0
10
162.75
20
-129.25
11
162.75
21
-112.75
0
LINE
8
0
10
162.75
20
-112.75
11
145.25
21
-112.75
0
LINE
8
0
10
145.25
20
-112.75
11
145.25
21
-129.25
0
LINE
8
0
10
145.25
20
-110.25
11
162.75
21
-110.25
0
LINE
8
0
10
162.75
20
-110.25
11
162.75
21
-93.75
0
LINE
8
0
10
162.75
20
-93.75
11
145.25
21
-93.75
0
LINE
8
0
10
145.25
20
-93.75
11
145.25
21
-110.25
0
LINE
8
0
10
145.25
20
-91.25
11
162.75
21
-91.25
0
LINE
8
0
10
162.75
20
-91.25
11
162.75
21
-74.75
0
LINE
8
0
10
162.75
20
-74.75
11
145.25
21
-74.75
0
LINE
8
0
10
145.25
20
-74.75
11
145.25
21
-91.25
0
LINE
8
0
10
163.25
20
-150.25
11
180.75
21
-150.25
0
LINE
8
0
10
180.75
20
-150.25
11
180.75
21
-133.75
0
LINE
8
0
10
180.75
20
-133.75
11
163.25
21
-133.75
0
LINE
8
0
10
163.25
20
-133.75
11
163.25
21
-150.25
0
LINE
8
0
10
163.25
20
-131.25
11
180.75
21
-131.25
0
LINE
8
0
10
180.75
20
-131.25
11
180.75
21
-114.75
0
LINE
8
0
10
180.75
20
-114.75
11
163.25
21
-114.75
0
LINE
8
0
10
163.25
20
-114.75
11
163.25
21
-131.25
0
LINE
8
0
10
163.25
20
-112.25
11
180.75
21
-112.25
0
LINE
8
0
10
180.75
20
-112.25
11
180.75
21
-95.75
0
LINE
8
0
10
180.75
20
-95.75
11
163.25
21
-95.75
0
LINE
8
0
10
163.25
20
-95.75
11
163.25
21
-112.25
0
LINE
8
0
10
163.25
20
-93.25
11
180.75
21
-93.25
0
LINE
8
0
10
180.75
20
-93.25
11
180.75
21
-76.75
0
LINE
8
0
10
180.75
20
-76.75
11
163.25
21
-76.75
0
LINE
8
0
10
163.25
20
-76.75
11
163.25
21
-93.25
0
LINE
8
0
10
181.25
20
-152.25
11
198.75
21
-152.25
0
LINE
8
0
10
198.75
20
-152.25
11
198.75
21
-135.75
0
LINE
8
0
10
198.75
20
-135.75
11
181.25
21
-135.75
0
LINE
8
0
10
181.25
20
-135.75
11
181.25
21
-152.25
0
LINE
8
0
10
181.25
20
-133.25
11
198.75
21
-133.25
0
LINE
8
0
10
198.75
20
-133.25
11
198.75
21
-116.75
0
LINE
8
0
10
198.75
20
-116.75
11
181.25
21
-116.75
0
LINE
8
0
10
181.25
20
-116.75
11
181.25
21
-133.25
0
LINE
8
0
10
181.25
20
-114.25
11
198.75
21
-114.25
0
LINE
8
0
10
198.75
20
-114.25
11
198.75
21
-97.75
0
LINE
8
0
10
198.75
20
-97.75
11
181.25
21
-97.75
0
LINE
8
0
10
181.25
20
-97.75
11
181.25
21
-114.25
0
LINE
8
0
10
181.25
20
-95.25
11
198.75
21
-95.25
0
LINE
8
0
10
198.75
20
-95.25
11
198.75
21
-78.75
0
LINE
8
0
10
198.75
20
-78.75
11
181.25
21
-78.75
0
LINE
8
0
10
181.25
20
-78.75
11
181.25
21
-95.25
0
LINE
8
0
10
163.25
20
-170.25
11
180.75
21
-170.25
0
LINE
8
0
10
180.75
20
-170.25
11
180.75
21
-153.75
0
LINE
8
0
10
180.75
20
-153.75
11
163.25
21
-153.75
0
LINE
8
0
10
163.25
20
-153.75
11
163.25
21
-170.25
0
LINE
8
0
10
181.25
20
-170.25
11
198.75
21
-170.25
0
LINE
8
0
10
198.75
20
-170.25
11
198.75
21
-153.75
0
LINE
8
0
10
198.75
20
-153.75
11
181.25
21
-153.75
0
LINE
8
0
10
181.25
20
-153.75
11
181.25
21
-170.25
0
LINE
8
0
10
199.25
20
-170.25
11
216.75
21
-170.25
0
LINE
8
0
10
216.75
20
-170.25
11
216.75
21
-153.75
0
LINE
8
0
10
216.75
20
-153.75
11
199.25
21
-153.75
0
LINE
8
0
10
199.25
20
-153.75
11
199.25
21
-170.25
0
LINE
8
0
10
361.25
20
-158.25
11
378.75
21
-158.25
0
LINE
8
0
10
378.75
20
-158.25
11
378.75
21
-141.75
0
LINE
8
0
10
378.75
20
-141.75
11
361.25
21
-141.75
0
LINE
8
0
10
361.25
20
-141.75
11
361.25
21
-158.25
0
LINE
8
0
10
361.25
20
-139.25
11
378.75
21
-139.25
0
LINE
8
0
10
378.75
20
-139.25
11
378.75
21
-122.75
0
LINE
8
0
10
378.75
20
-122.75
11
361.25
21
-122.75
0
LINE
8
0
10
361.25
20
-122.75
11
361.25
21
-139.25
0
LINE
8
0
10
361.25
20
-120.25
11
378.75
21
-120.25
0
LINE
8
0
10
378.75
20
-120.25
11
378.75
21
-103.75
0
LINE
8
0
10
378.75
20
-103.75
11
361.25
21
-103.75
0
LINE
8
0
10
361.25
20
-103.75
11
361.25
21
-120.25
0
LINE
8
0
10
343.25
20
-158.25
11
360.75
21
-158.25
0
LINE
8
0
10
360.75
20
-158.25
11
360.75
21
-141.75
0
LINE
8
0
10
360.75
20
-141.75
11
343.25
21
-141.75
0
LINE
8
0
10
343.25
20
-141.75
11
343.25
21
-158.25
0
LINE
8
0
10
343.25
20
-139.25
11
360.75
21
-139.25
0
LINE
8
0
10
360.75
20
-139.25
11
360.75
21
-122.75
0
LINE
8
0
10
360.75
20
-122.75
11
343.25
21
-122.75
0
LINE
8
0
10
343.25
20
-122.75
11
343.25
21
-139.25
0
LINE
8
0
10
343.25
20
-120.25
11
360.75
21
-120.25
0
LINE
8
0
10
360.75
20
-120.25
11
360.75
21
-103.75
0
LINE
8
0
10
360.75
20
-103.75
11
343.25
21
-103.75
0
LINE
8
0
10
343.25
20
-103.75
11
343.25
21
-120.25
0
LINE
8
0
10
343.25
20
-101.25
11
360.75
21
-101.25
0
LINE
8
0
10
360.75
20
-101.25
11
360.75
21
-84.75
0
LINE
8
0
10
360.75
20
-84.75
11
343.25
21
-84.75
0
LINE
8
0
10
343.25
20
-84.75
11
343.25
21
-101.25
0
LINE
8
0
10
325.25
20
-150.25
11
342.75
21
-150.25
0
LINE
8
0
10
342.75
20
-150.25
11
342.75
21
-133.75
0
LINE
8
0
10
342.75
20
-133.75
11
325.25
21
-133.75
0
LINE
8
0
10
325.25
20
-133.75
11
325.25
21
-150.25
0
LINE
8
0
10
325.25
20
-131.25
11
342.75
21
-131.25
0
LINE
8
0
10
342.75
20
-131.25
11
342.75
21
-114.75
0
LINE
8
0
10
342.75
20
-114.75
11
325.25
21
-114.75
0
LINE
8
0
10
325.25
20
-114.75
11
325.25
21
-131.25
0
LINE
8
0
10
325.25
20
-112.25
11
342.75
21
-112.25
0
LINE
8
0
10
342.75
20
-112.25
11
342.75
21
-95.75
0
LINE
8
0
10
342.75
20
-95.75
11
325.25
21
-95.75
0
LINE
8
0
10
325.25
20
-95.75
11
325.25
21
-112.25
0
LINE
8
0
10
325.25
20
-93.25
11
342.75
21
-93.25
0
LINE
8
0
10
342.75
20
-93.25
11
342.75
21
-76.75
0
LINE
8
0
10
342.75
20
-76.75
11
325.25
21
-76.75
0
LINE
8
0
10
325.25
20
-76.75
11
325.25
21
-93.25
0
LINE
8
0
10
307.25
20
-148.25
11
324.75
21
-148.25
0
LINE
8
0
10
324.75
20
-148.25
11
324.75
21
-131.75
0
LINE
8
0
10
324.75
20
-131.75
11
307.25
21
-131.75
0
LINE
8
0
10
307.25
20
-131.75
11
307.25
21
-148.25
0
LINE
8
0
10
307.25
20
-129.25
11
324.75
21
-129.25
0
LINE
8
0
10
324.75
20
-129.25
11
324.75
21
-112.75
0
LINE
8
0
10
324.75
20
-112.75
11
307.25
21
-112.75
0
LINE
8
0
10
307.25
20
-112.75
11
307.25
21
-129.25
0
LINE
8
0
10
307.25
20
-110.25
11
324.75
21
-110.25
0
LINE
8
0
10
324.75
20
-110.25
11
324.75
21
-93.75
0
LINE
8
0
10
324.75
20
-93.75
11
307.25
21
-93.75
0
LINE
8
0
10
307.25
20
-93.75
11
307.25
21
-110.25
0
LINE
8
0
10
307.25
20
-91.25
11
324.75
21
-91.25
0
LINE
8
0
10
324.75
20
-91.25
11
324.75
21
-74.75
0
LINE
8
0
10
324.75
20
-74.75
11
307.25
21
-74.75
0
LINE
8
0
10
307.25
20
-74.75
11
307.25
21
-91.25
0
LINE
8
0
10
289.25
20
-150.25
11
306.75
21
-150.25
0
LINE
8
0
10
306.75
20
-150.25
11
306.75
21
-133.75
0
LINE
8
0
10
306.75
20
-133.75
11
289.25
21
-133.75
0
LINE
8
0
10
289.25
20
-133.75
11
289.25
21
-150.25
0
LINE
8
0
10
289.25
20
-131.25
11
306.75
21
-131.25
0
LINE
8
0
10
306.75
20
-131.25
11
306.75
21
-114.75
0
LINE
8
0
10
306.75
20
-114.75
11
289.25
21
-114.75
0
LINE
8
0
10
289.25
20
-114.75
11
289.25
21
-131.25
0
LINE
8
0
10
289.25
20
-112.25
11
306.75
21
-112.25
0
LINE
8
0
10
306.75
20
-112.25
11
306.75
21
-95.75
0
LINE
8
0
10
306.75
20
-95.75
11
289.25
21
-95.75
0
LINE
8
0
10
289.25
20
-95.75
11
289.25
21
-112.25
0
LINE
8
0
10
289.25
20
-93.25
11
306.75
21
-93.25
0
LINE
8
0
10
306.75
20
-93.25
11
306.75
21
-76.75
0
LINE
8
0
10
306.75
20
-76.75
11
289.25
21
-76.75
0
LINE
8
0
10
289.25
20
-76.75
11
289.25
21
-93.25
0
LINE
8
0
10
271.25
20
-152.25
11
288.75
21
-152.25
0
LINE
8
0
10
288.75
20
-152.25
11
288.75
21
-135.75
0
LINE
8
0
10
288.75
20
-135.75
11
271.25
21
-135.75
0
LINE
8
0
10
271.25
20
-135.75
11
271.25
21
-152.25
0
LINE
8
0
10
271.25
20
-133.25
11
288.75
21
-133.25
0
LINE
8
0
10
288.75
20
-133.25
11
288.75
21
-116.75
0
LINE
8
0
10
288.75
20
-116.75
11
271.25
21
-116.75
0
LINE
8
0
10
271.25
20
-116.75
11
271.25
21
-133.25
0
LINE
8
0
10
271.25
20
-114.25
11
288.75
21
-114.25
0
LINE
8
0
10
288.75
20
-114.25
11
288.75
21
-97.75
0
LINE
8
0
10
288.75
20
-97.75
11
271.25
21
-97.75
0
LINE
8
0
10
271.25
20
-97.75
11
271.25
21
-114.25
0
LINE
8
0
10
271.25
20
-95.25
11
288.75
21
-95.25
0
LINE
8
0
10
288.75
20
-95.25
11
288.75
21
-78.75
0
LINE
8
0
10
288.75
20
-78.75
11
271.25
21
-78.75
0
LINE
8
0
10
271.25
20
-78.75
11
271.25
21
-95.25
0
LINE
8
0
10
289.25
20
-170.25
11
306.75
21
-170.25
0
LINE
8
0
10
306.75
20
-170.25
11
306.75
21
-153.75
0
LINE
8
0
10
306.75
20
-153.75
11
289.25
21
-153.75
0
LINE
8
0
10
289.25
20
-153.75
11
289.25
21
-170.25
0
LINE
8
0
10
271.25
20
-170.25
11
288.75
21
-170.25
0
LINE
8
0
10
288.75
20
-170.25
11
288.75
21
-153.75
0
LINE
8
0
10
288.75
20
-153.75
11
271.25
21
-153.75
0
LINE
8
0
10
271.25
20
-153.75
11
271.25
21
-170.25
0
LINE
8
0
10
253.25
20
-170.25
11
270.75
21
-170.25
0
LINE
8
0
10
270.75
20
-170.25
11
270.75
21
-153.75
0
LINE
8
0
10
270.75
20
-153.75
11
253.25
21
-153.75
0
LINE
8
0
10
253.25
20
-153.75
11
253.25
21
-170.25
0
ENDSEC
0
EOF