0
SECTION
2
HEADER
9
$INSUNITS
70
4
0
ENDSEC
0
SECTION
2
TABLES
0
TABLE
2
LTYPE
0
LTYPE
72
65
70
64
2
CONTINUOUS
3
______
73
0
40
0
0
ENDTAB
0
TABLE
2
LAYER
0
ENDTAB
0
ENDSEC
0
SECTION
2
ENTITIES
0
LINE
8
0
10
90
20
-159.5
11
128
21
-159.5
0
LINE
8
0
10
90
20
-159.5
11
90
21
-102.5
0
LINE
8
0
10
108
20
-102.5
11
90
21
-102.5
0
LINE
8
0
10
128
20
-159.5
11
128
21
-151.5
0
LINE
8
0
10
126
20
-83.5
11
108
21
-83.5
0
LINE
8
0
10
108
20
-83.5
11
108
21
-102.5
0
LINE
8
0
10
128
20
-151.5
11
146
21
-151.5
0
LINE
8
0
10
146
20
-151.5
11
146
21
-149.5
0
LINE
8
0
10
144
20
-75.5
11
126
21
-75.5
0
LINE
8
0
10
126
20
-75.5
11
126
21
-83.5
0
LINE
8
0
10
146
20
-149.5
11
162
21
-149.5
0
LINE
8
0
10
164
20
-75.5
11
164
21
-73.5
0
LINE
8
0
10
164
20
-73.5
11
144
21
-73.5
0
LINE
8
0
10
144
20
-73.5
11
144
21
-75.5
0
LINE
8
0
10
162
20
-151.5
11
180
21
-151.5
0
LINE
8
0
10
162
20
-149.5
11
162
21
-151.5
0
LINE
8
0
10
182
20
-77.5
11
182
21
-75.5
0
LINE
8
0
10
182
20
-75.5
11
164
21
-75.5
0
LINE
8
0
10
200
20
-152.5
11
200
21
-77.5
0
LINE
8
0
10
180
20
-151.5
11
180
21
-152.5
0
LINE
8
0
10
200
20
-77.5
11
182
21
-77.5
0
LINE
8
0
10
162
20
-171.5
11
218
21
-171.5
0
LINE
8
0
10
180
20
-152.5
11
162
21
-152.5
0
LINE
8
0
10
162
20
-152.5
11
162
21
-171.5
0
LINE
8
0
10
218
20
-171.5
11
218
21
-152.5
0
LINE
8
0
10
218
20
-152.5
11
200
21
-152.5
0
LINE
8
0
10
342
20
-159.5
11
380
21
-159.5
0
LINE
8
0
10
380
20
-159.5
11
380
21
-102.5
0
LINE
8
0
10
380
20
-102.5
11
362
21
-102.5
0
LINE
8
0
10
342
20
-151.5
11
342
21
-159.5
0
LINE
8
0
10
362
20
-102.5
11
362
21
-83.5
0
LINE
8
0
10
362
20
-83.5
11
344
21
-83.5
0
LINE
8
0
10
324
20
-151.5
11
342
21
-151.5
0
LINE
8
0
10
324
20
-149.5
11
324
21
-151.5
0
LINE
8
0
10
344
20
-83.5
11
344
21
-75.5
0
LINE
8
0
10
344
20
-75.5
11
326
21
-75.5
0
LINE
8
0
10
308
20
-149.5
11
324
21
-149.5
0
LINE
8
0
10
326
20
-75.5
11
326
21
-73.5
0
LINE
8
0
10
326
20
-73.5
11
306
21
-73.5
0
LINE
8
0
10
306
20
-73.5
11
306
21
-75.5
0
LINE
8
0
10
290
20
-151.5
11
308
21
-151.5
0
LINE
8
0
10
308
20
-151.5
11
308
21
-149.5
0
LINE
8
0
10
306
20
-75.5
11
288
21
-75.5
0
LINE
8
0
10
288
20
-75.5
11
288
21
-77.5
0
LINE
8
0
10
290
20
-152.5
11
290
21
-151.5
0
LINE
8
0
10
270
20
-152.5
11
270
21
-77.5
0
LINE
8
0
10
288
20
-77.5
11
270
21
-77.5
0
LINE
8
0
10
252
20
-171.5
11
308
21
-171.5
0
LINE
8
0
10
308
20
-171.5
11
308
21
-152.5
0
LINE
8
0
10
308
20
-152.5
11
290
21
-152.5
0
LINE
8
0
10
270
20
-152.5
11
252
21
-152.5
0
LINE
8
0
10
252
20
-152.5
11
252
21
-171.5
0
ENDSEC
0
EOF