0
SECTION
2
HEADER
9
$INSUNITS
70
4
0
ENDSEC
0
SECTION
2
TABLES
0
TABLE
2
LTYPE
0
LTYPE
72
65
70
64
2
CONTINUOUS
3
______
73
0
40
0
0
ENDTAB
0
TABLE
2
LAYER
0
ENDTAB
0
ENDSEC
0
SECTION
2
ENTITIES
0
LINE
8
0
10
-9
20
-7.5
11
-9
21
42.86
0
LINE
8
0
10
-8
20
43.86
11
8.72
21
43.86
0
LINE
8
0
10
9.72
20
44.86
11
9.72
21
60.54
0
LINE
8
0
10
10.72
20
61.54
11
27.44
21
61.54
0
LINE
8
0
10
28.44
20
62.54
11
28.44
21
65.844
0
LINE
8
0
10
29.44
20
66.844
11
45.44
21
66.844
0
LINE
8
0
10
46.44
20
65.844
11
46.44
21
57.236
0
LINE
8
0
10
47.44
20
56.236
11
64.16
21
56.236
0
LINE
8
0
10
65.16
20
55.236
11
65.16
21
53.7
0
LINE
8
0
10
66.16
20
52.7
11
82.88
21
52.7
0
LINE
8
0
10
83.88
20
51.7
11
83.88
21
-16.34
0
LINE
8
0
10
82.88
20
-17.34
11
48.16
21
-17.34
0
LINE
8
0
10
47.16
20
-16.34
11
47.16
21
13.484
0
LINE
8
0
10
46.16
20
14.484
11
28.72
21
14.484
0
LINE
8
0
10
27.72
20
13.484
11
27.72
21
10.18
0
LINE
8
0
10
26.72
20
9.18
11
10
21
9.18
0
LINE
8
0
10
9
20
8.18
11
9
21
-7.5
0
LINE
8
0
10
8
20
-8.5
11
-8
21
-8.5
0
ARC
8
0
10
-8
20
42.86
40
1
50
90
51
180
0
ARC
8
0
10
8.72
20
44.86
40
1
50
270
51
0
0
ARC
8
0
10
10.72
20
60.54
40
1
50
90
51
180
0
ARC
8
0
10
27.44
20
62.54
40
1
50
270
51
0
0
ARC
8
0
10
29.44
20
65.844
40
1
50
90
51
180
0
ARC
8
0
10
45.44
20
65.844
40
1
50
0
51
90
0
ARC
8
0
10
47.44
20
57.236
40
1
50
180
51
270
0
ARC
8
0
10
64.16
20
55.236
40
1
50
0
51
90
0
ARC
8
0
10
66.16
20
53.7
40
1
50
180
51
270
0
ARC
8
0
10
82.88
20
51.7
40
1
50
0
51
90
0
ARC
8
0
10
82.88
20
-16.34
40
1
50
270
51
0
0
ARC
8
0
10
48.16
20
-16.34
40
1
50
180
51
270
0
ARC
8
0
10
46.16
20
13.484
40
1
50
0
51
90
0
ARC
8
0
10
28.72
20
13.484
40
1
50
90
51
180
0
ARC
8
0
10
26.72
20
10.18
40
1
50
270
51
0
0
ARC
8
0
10
10
20
8.18
40
1
50
90
51
180
0
ARC
8
0
10
8
20
-7.5
40
1
50
270
51
0
0
ARC
8
0
10
-8
20
-7.5
40
1
50
180
51
270
0
LINE
8
0
10
-7
20
-7
11
7
21
-7
0
LINE
8
0
10
7
20
-7
11
7
21
7
0
LINE
8
0
10
7
20
7
11
-7
21
7
0
LINE
8
0
10
-7
20
7
11
-7
21
-7
0
LINE
8
0
10
-7
20
10.68
11
7
21
10.68
0
LINE
8
0
10
7
20
10.68
11
7
21
24.68
0
LINE
8
0
10
7
20
24.68
11
-7
21
24.68
0
LINE
8
0
10
-7
20
24.68
11
-7
21
10.68
0
LINE
8
0
10
-7
20
28.36
11
7
21
28.36
0
LINE
8
0
10
7
20
28.36
11
7
21
42.36
0
LINE
8
0
10
7
20
42.36
11
-7
21
42.36
0
LINE
8
0
10
-7
20
42.36
11
-7
21
28.36
0
LINE
8
0
10
11.72
20
10.68
11
25.72
21
10.68
0
LINE
8
0
10
25.72
20
10.68
11
25.72
21
24.68
0
LINE
8
0
10
25.72
20
24.68
11
11.72
21
24.68
0
LINE
8
0
10
11.72
20
24.68
11
11.72
21
10.68
0
LINE
8
0
10
11.72
20
28.36
11
25.72
21
28.36
0
LINE
8
0
10
25.72
20
28.36
11
25.72
21
42.36
0
LINE
8
0
10
25.72
20
42.36
11
11.72
21
42.36
0
LINE
8
0
10
11.72
20
42.36
11
11.72
21
28.36
0
LINE
8
0
10
11.72
20
46.04
11
25.72
21
46.04
0
LINE
8
0
10
25.72
20
46.04
11
25.72
21
60.04
0
LINE
8
0
10
25.72
20
60.04
11
11.72
21
60.04
0
LINE
8
0
10
11.72
20
60.04
11
11.72
21
46.04
0
LINE
8
0
10
30.44
20
15.984
11
44.44
21
15.984
0
LINE
8
0
10
44.44
20
15.984
11
44.44
21
29.984
0
LINE
8
0
10
44.44
20
29.984
11
30.44
21
29.984
0
LINE
8
0
10
30.44
20
29.984
11
30.44
21
15.984
0
LINE
8
0
10
30.44
20
33.664
11
44.44
21
33.664
0
LINE
8
0
10
44.44
20
33.664
11
44.44
21
47.664
0
LINE
8
0
10
44.44
20
47.664
11
30.44
21
47.664
0
LINE
8
0
10
30.44
20
47.664
11
30.44
21
33.664
0
LINE
8
0
10
30.44
20
51.344
11
44.44
21
51.344
0
LINE
8
0
10
44.44
20
51.344
11
44.44
21
65.344
0
LINE
8
0
10
44.44
20
65.344
11
30.44
21
65.344
0
LINE
8
0
10
30.44
20
65.344
11
30.44
21
51.344
0
LINE
8
0
10
49.16
20
5.376
11
63.16
21
5.376
0
LINE
8
0
10
63.16
20
5.376
11
63.16
21
19.376
0
LINE
8
0
10
63.16
20
19.376
11
49.16
21
19.376
0
LINE
8
0
10
49.16
20
19.376
11
49.16
21
5.376
0
LINE
8
0
10
49.16
20
23.056
11
63.16
21
23.056
0
LINE
8
0
10
63.16
20
23.056
11
63.16
21
37.056
0
LINE
8
0
10
63.16
20
37.056
11
49.16
21
37.056
0
LINE
8
0
10
49.16
20
37.056
11
49.16
21
23.056
0
LINE
8
0
10
49.16
20
40.736
11
63.16
21
40.736
0
LINE
8
0
10
63.16
20
40.736
11
63.16
21
54.736
0
LINE
8
0
10
63.16
20
54.736
11
49.16
21
54.736
0
LINE
8
0
10
49.16
20
54.736
11
49.16
21
40.736
0
LINE
8
0
10
67.88
20
1.84
11
81.88
21
1.84
0
LINE
8
0
10
81.88
20
1.84
11
81.88
21
15.84
0
LINE
8
0
10
81.88
20
15.84
11
67.88
21
15.84
0
LINE
8
0
10
67.88
20
15.84
11
67.88
21
1.84
0
LINE
8
0
10
67.88
20
19.52
11
81.88
21
19.52
0
LINE
8
0
10
81.88
20
19.52
11
81.88
21
33.52
0
LINE
8
0
10
81.88
20
33.52
11
67.88
21
33.52
0
LINE
8
0
10
67.88
20
33.52
11
67.88
21
19.52
0
LINE
8
0
10
67.88
20
37.2
11
81.88
21
37.2
0
LINE
8
0
10
81.88
20
37.2
11
81.88
21
51.2
0
LINE
8
0
10
81.88
20
51.2
11
67.88
21
51.2
0
LINE
8
0
10
67.88
20
51.2
11
67.88
21
37.2
0
LINE
8
0
10
49.16
20
-15.84
11
63.16
21
-15.84
0
LINE
8
0
10
63.16
20
-15.84
11
63.16
21
-1.84
0
LINE
8
0
10
63.16
20
-1.84
11
49.16
21
-1.84
0
LINE
8
0
10
49.16
20
-1.84
11
49.16
21
-15.84
0
LINE
8
0
10
67.88
20
-15.84
11
81.88
21
-15.84
0
LINE
8
0
10
81.88
20
-15.84
11
81.88
21
-1.84
0
LINE
8
0
10
81.88
20
-1.84
11
67.88
21
-1.84
0
LINE
8
0
10
67.88
20
-1.84
11
67.88
21
-15.84
0
ENDSEC
0
EOF